<?xml version="1.0" encoding="utf-8"?>
<!-- Generator: Adobe Illustrator 20.0.0, SVG Export Plug-In . SVG Version: 6.00 Build 0)  -->
<svg version="1.1" id="Layer_1" xmlns="http://www.w3.org/2000/svg" xmlns:xlink="http://www.w3.org/1999/xlink" x="0px" y="0px"
	 viewBox="0 0 998.7 290.9" style="enable-background:new 0 0 998.7 290.9;" xml:space="preserve">
<style type="text/css">
	.st0{fill:#00B7F1;}
</style>
<g>
	<polygon class="st0" points="372,34 373.9,18.2 375.9,34 383,30.9 379.8,38 395.7,40 379.8,41.9 383,49 375.9,45.9 373.9,61.7 
		372,45.9 364.9,49 368,41.9 352.2,40 368,38 364.9,30.9 	"/>
	<polygon class="st0" points="657.3,190.5 658.8,178.2 660.3,190.5 665.8,188.1 663.4,193.6 675.7,195.1 663.4,196.6 665.8,202.1 
		660.3,199.7 658.8,212 657.3,199.7 651.8,202.1 654.2,196.6 641.9,195.1 654.2,193.6 651.8,188.1 	"/>
	<polygon class="st0" points="19.8,192 21.8,176.2 23.7,192 30.8,188.9 27.7,196 43.5,198 27.7,199.9 30.8,207 23.7,203.9 
		21.8,219.7 19.8,203.9 12.7,207 15.8,199.9 0,198 15.8,196 12.7,188.9 	"/>
	<polygon class="st0" points="853.8,140 855.8,124.2 857.7,140 864.8,136.9 861.7,144 877.5,146 861.7,147.9 864.8,155 857.7,151.9 
		855.8,167.7 853.8,151.9 846.7,155 849.8,147.9 834,146 849.8,144 846.7,136.9 	"/>
	<polygon class="st0" points="370.9,189.5 372,184 373.1,189.5 377.1,187.8 375.3,191.8 380.9,192.9 375.3,193.9 377.1,197.9 
		373.1,196.2 372,201.7 370.9,196.2 366.9,197.9 368.7,193.9 363.2,192.9 368.7,191.8 366.9,187.8 	"/>
	<polygon class="st0" points="72.3,22.4 73.1,18 74,22.4 77.1,21 75.7,24.1 80.1,25 75.7,25.8 77.1,29 74,27.6 73.1,31.9 72.3,27.6 
		69.1,29 70.5,25.8 66.2,25 70.5,24.1 69.1,21 	"/>
	<polygon class="st0" points="178.3,281.4 179.1,277 180,281.4 183.1,280 181.7,283.1 186.1,284 181.7,284.8 183.1,288 180,286.6 
		179.1,290.9 178.3,286.6 175.1,288 176.5,284.8 172.2,284 176.5,283.1 175.1,280 	"/>
	<polygon class="st0" points="990.9,197.4 991.7,193 992.6,197.4 995.7,196 994.3,199.1 998.7,200 994.3,200.8 995.7,204 
		992.6,202.6 991.7,206.9 990.9,202.6 987.7,204 989.1,200.8 984.7,200 989.1,199.1 987.7,196 	"/>
	<polygon class="st0" points="950.1,25.8 951.7,18 953.2,25.8 958.9,23.3 956.4,29 964.2,30.5 956.4,32.1 958.9,37.7 953.2,35.2 
		951.7,43 950.1,35.2 944.5,37.7 947,32.1 939.2,30.5 947,29 944.5,23.3 	"/>
	<polygon class="st0" points="191.1,131.8 192.7,124 194.2,131.8 199.9,129.3 197.4,135 205.2,136.5 197.4,138.1 199.9,143.7 
		194.2,141.2 192.7,149 191.1,141.2 185.5,143.7 188,138.1 180.2,136.5 188,135 185.5,129.3 	"/>
	<polygon class="st0" points="691,60.6 692.1,55 693.2,60.6 697.3,58.8 695.5,62.9 701.1,64 695.5,65.1 697.3,69.1 693.2,67.3 
		692.1,72.9 691,67.3 687,69.1 688.8,65.1 683.2,64 688.8,62.9 687,58.8 	"/>
	<polygon class="st0" points="613.2,29 613.9,25.4 614.6,29 617.2,27.9 616.1,30.5 619.7,31.2 616.1,31.9 617.2,34.5 614.6,33.4 
		613.9,36.9 613.2,33.4 610.6,34.5 611.8,31.9 608.2,31.2 611.8,30.5 610.6,27.9 	"/>
	<polygon class="st0" points="183,5.6 184.1,0 185.2,5.6 189.3,3.8 187.5,7.9 193.1,9 187.5,10.1 189.3,14.1 185.2,12.3 184.1,17.9 
		183,12.3 179,14.1 180.8,10.1 175.2,9 180.8,7.9 179,3.8 	"/>
	<polygon class="st0" points="935.7,267.3 936.9,261.5 938,267.3 942.2,265.4 940.3,269.6 946.1,270.7 940.3,271.9 942.2,276 
		938,274.2 936.9,279.9 935.7,274.2 931.6,276 933.4,271.9 927.7,270.7 933.4,269.6 931.6,265.4 	"/>
</g>
</svg>

